<?xml version="1.0" encoding="utf-8"?>
<!-- Generator: Adobe Illustrator 26.2.1, SVG Export Plug-In . SVG Version: 6.00 Build 0)  -->
<svg version="1.1" id="Layer_1" xmlns="http://www.w3.org/2000/svg" xmlns:xlink="http://www.w3.org/1999/xlink" x="0px" y="0px"
	 viewBox="0 0 2000 2000" style="enable-background:new 0 0 2000 2000;" xml:space="preserve">
<style type="text/css">
	.st0{fill:#020201;}
	.st1{fill:#E15C27;}
	.st2{fill:#7AA25A;}
</style>
<g>
	<path class="st0" d="M644.4,352.9c16.4,0,32.4,2.3,48.3,5.9c17.9,4,34.9,10.1,51.7,17.4c9,3.9,18,8,26.4,13.1c2,1.2,4,1.8,6.3,1.7
		c3.5-0.1,6.8-0.5,10.2-1.6c12.9-4.4,25.1-10.1,35.5-19.2c10.3-9,21.9-15.9,34.8-20.3c9.9-3.3,19.9-5.5,30.4-5.2c4.7,0.1,9.4,0,14,0
		c13.1,0,26.1-1.1,39.1-2.3c6.6-0.6,13.2-1.3,19.9-1.7c9.7-0.5,19.2,0.4,28.3,4c18.1,7.2,30,20.1,35.7,38.8c1.5,5,2.3,10.1,3,15.2
		c0.4,2.9,0.9,5.8,1.6,8.7c0.7,2.9,2,5.6,4.1,7.7c1.9,1.9,3.8,3.9,5.8,5.7c3,2.9,6.2,5.7,9.2,8.5c5.2,4.9,10.1,10.1,14.7,15.6
		c12.8,15,21.8,32.1,28.1,50.7c4.4,12.8,8,25.9,11.5,38.9c3,10.9,5.7,21.9,8.3,32.9c2.3,9.8,4,19.8,5.4,29.8
		c1.8,13.5,5.3,26.5,10.5,39.1c0.3,0.7,0.7,1.3,1.1,1.9c0.3,0.5,0.9,0.7,1.2,0.3c1.2-1.3,2.3-2.5,3.4-3.9
		c16.5-21.5,33.1-42.9,49.5-64.5c52.2-68.3,103.7-137.2,154.5-206.5c0.9-1.2,1.8-2.4,2.6-3.6c6.3-8.9,14.9-13.9,25.5-16.1
		c12.2-2.5,28.8,1.8,38.3,15.4c1.3,1.8,2.4,3.8,3.5,5.7c9.2,15.8,19.5,30.8,31,44.9c40,48.8,89,85.3,147.9,108.4
		c15.1,5.9,30.6,10.7,46.5,14.2c3.1,0.7,6.2,1.5,9.1,2.8c12,5.6,19.6,14.9,22,27.8c2.1,11.4-0.5,22-8,31.2c-1.2,1.5-2.6,2.9-4,4.4
		C1547,708.9,1442.5,818.9,1337.9,929c-25.5,26.8-50.9,53.6-76.4,80.4c-1.2,1.2-2.3,2.5-3.5,3.8c-0.5,0.5-0.4,1.4,0.1,2
		c1.2,1.3,2.3,2.5,3.5,3.8c5.6,5.9,11,11.9,16,18.4c9,11.5,16.4,23.9,21.6,37.6c5.9,15.6,8.7,31.8,7.8,48.5
		c-0.5,10.4-2.2,20.6-4.8,30.6c-1.4,5.5-3,10.9-4.4,16.4c-0.5,1.9-0.9,3.8-1.2,5.8c-0.1,0.6,0.2,1.5,0.7,2c1,1,2.2,1.9,3.4,2.8
		c18.5,14.3,36.7,29.1,54.6,44.1c16.6,13.9,32.5,28.7,47.4,44.5c12.4,13.1,23.4,27.3,32.7,42.8c11.6,19.4,20.1,40,25,62.1
		c3.4,15.5,4.8,31.1,3.8,47c-0.5,7.6-2,15.1-3.7,22.6c-3.4,15.6-8.1,30.9-13.4,46.1c-3,8.6-6.9,16.8-11.1,25
		c-16.1,31.3-36,59.9-60.5,85.3c-12.7,13.1-26.7,24.8-42.2,34.6c-14.7,9.3-30.3,16.2-47.2,20.5c-12.3,3.1-24.7,4.3-37.3,4.1
		c-20.5-0.2-40-5-58.7-13c-21-8.9-40-21.1-57.6-35.6c-1.3-1.1-2.6-2.2-3.9-3.4c-14.8-12.5-27.2-27.1-36.6-44.1
		c-7.7-13.8-15.3-27.6-22.7-41.4c-17.4-32.3-34.9-64.5-53.4-96.2c-7.1-12.1-14.3-24.2-22.1-35.8c-2.9-4.3-6-8.5-9.1-12.6
		c-3.8-4.9-8.3-9.1-13.7-12.2c-9.4-5.4-18.7-10.9-28-16.4c-1.9-1.1-2.7-0.9-4.5,0.9c-1.2,1.2-2.4,2.5-3.6,3.7
		c-90.1,94.9-180.2,189.8-270.3,284.7c-1.4,1.4-2.7,2.9-4.1,4.2c-9.9,9.7-26.7,13.7-40.5,8.4c-12-4.6-23.5-10-34.7-16.4
		c-63.3-36.4-105.4-89.8-127.7-159.2c-0.7-2.3-1.4-4.7-1.9-7.1c-2.2-12.4,0.7-23.5,9.1-32.9c8.5-9.6,17.1-19.1,25.7-28.6
		c63.8-71.2,126.9-143.1,189.1-215.6c1.1-1.3,2.2-2.6,3.3-4c0.5-0.6,0.4-1.6-0.1-2c-1.3-1.1-2.6-2.2-4-3.3
		c-22.6-18.3-44.6-37.3-65.8-57.2c-34.4-32.5-70-63.6-106.2-94.1c-13.2-11.1-26.3-22.4-39.3-33.7c-4.6-4-9.1-8.3-13.4-12.7
		c-15.1-15.1-25.8-32.8-32.5-53c-4.8-14.5-9-29.1-13.2-43.8c-8.4-29.8-16.7-59.7-25.1-89.6c-0.5-1.7-1-3.3-1.4-5
		c-4.5-16.4-12.6-30.9-23.2-44.2c-3.4-4.2-6.7-8.5-9.9-12.9c-4.9-6.9-8.4-14.4-10.7-22.6c-2-7.2-2.5-14.5-2.5-21.9
		c0.1-11,2.6-21.5,7.2-31.4c2.4-5.2,5.3-10,8.5-14.7c2.4-3.4,4.9-6.8,7.4-10.2c2-2.8,4.1-5.6,6-8.4c6.9-10.1,11-21.4,13.6-33.3
		c0.4-1.7,0.5-3.4,0.6-5.1c0.4-5.9,0.8-11.8,1.2-17.7c0.8-12.5,4.2-24.2,10.4-35.1c9.5-16.7,22.9-29.5,40.2-37.9
		c3.3-1.6,6.7-3,10.1-4.5c2.2-1,4.6-1.9,6.6-3.2c4.3-2.7,7.5-6.3,8.6-11.5c0.7-3.4,1.5-6.7,2.1-10.1c4.8-27.9,19.6-49.5,41.7-66.6
		c6.6-5.1,13.8-9.6,21.3-13.2c20.8-10.1,42.1-19.2,64.2-26.1c12.7-4,25.8-6.5,39-7.9C631.1,353.2,637.8,353.2,644.4,352.9z"/>
	<path class="st1" d="M1265.6,1570.7c-29.9-0.3-57.9-8-83.9-22.8c-15.4-8.8-28.1-20.7-38.4-35.2c-5-7-9.5-14.4-13.4-22.1
		c-5.4-10.8-10.8-21.6-16.1-32.4c-6.6-13.5-13.2-27-20.7-40c-13.3-23.4-28.7-45.4-45.9-66c-20.2-24.1-42.9-45.5-67.4-65.1
		c-13.1-10.5-26.4-20.6-40-30.5c-25.5-18.4-52.7-33.7-81.8-45.6c-11.2-4.6-22.3-9.2-33.4-14c-24.3-10.4-47.2-23.4-68.9-38.5
		c-11.2-7.7-22.1-15.6-32.5-24.4c-7.7-6.5-15.3-13.2-22-20.8c-6.7-7.6-13.4-15.1-20.1-22.7c-10.8-12.2-21.9-24-33.7-35.3
		c-19.8-18.9-40.4-36.8-61.7-54.1c-17.2-14-34.6-27.8-51.8-41.7c-8.8-7.1-17.4-14.6-25.6-22.4c-12-11.4-22.7-23.9-32.6-37.2
		c-16.9-22.6-30.9-46.9-42.4-72.6c-0.7-1.6-1.4-3.2-2.1-4.7c-0.7-1.5-0.3-2.8,0.3-4.2c2.1-4.6,5.5-8.1,9.9-10.7
		c5.1-3.1,10.8-4.8,16.6-6c2.9-0.6,5.8-1.1,8.7-1.7c2.4-0.5,4.8-1,7.1-1.8c2.1-0.7,4.2-1.8,4.4-4.5c0.2-2.2-1.2-3.7-2.8-4.8
		c-1.8-1.2-3.8-2.4-5.7-3.3c-3.5-1.7-7.2-3.3-10.8-4.9c-10.4-4.6-20.5-9.7-29.9-16c-6.8-4.5-13.3-9.4-19.3-14.9
		c-9.2-8.3-16.9-17.9-22.8-28.9c-2.7-5-4.8-10.3-6.4-15.7c-3.3-11.4-2.3-22.4,2.9-33c4.1-8.3,9.8-15.4,16.8-21.3
		c6.1-5.1,13.2-8.5,21-10.4c2.6-0.7,5.3-1.1,7.9-1.7c2.6-0.6,5.3-1.1,7.8-2.1c5.2-2,6.8-6.2,5.2-11.4c-0.4-1.4-1.2-2.7-2-3.9
		c-1.5-2.3-3.2-4.4-4.7-6.6c-2.1-3-4.3-6-6.3-9.1c-5.1-8.4-7.6-17.7-7.1-27.5c0.8-15.9,7.4-28.9,20.6-38.3
		c8.2-5.8,17.2-9.4,27.2-10.7c5.7-0.8,11.3-1.1,16.9-0.4c3,0.4,5.9,0,8.8-0.7c4.6-1,7.6-4.7,7.9-9.5c0.2-3.2-0.2-6.4-1-9.5
		c-1.2-5-2.1-10.1-2.8-15.2c-0.9-6.7-0.1-13.3,1.3-19.8c3.9-17.9,13.8-31.9,28.9-42.3c4.7-3.2,9.6-6,14.7-8.5
		c15.1-7.3,30.6-13.7,46.3-19.4c11.1-4,22.6-6.6,34.4-8.1c10.8-1.3,21.6-1.5,32.5-0.6c9.3,0.8,18.5,2.5,27.7,4.7
		c12.3,2.9,24.2,6.8,35.7,11.7c7.7,3.3,15.3,6.7,22.8,10.5c11.1,5.5,21.1,12.6,30.2,21.1c2.2,2,4.4,4,6.7,5.8c1.3,1,2.9,1.9,4.5,2.6
		c4.3,1.7,8.2,1.3,11.6-2.1c1.7-1.7,3.4-3.6,4.9-5.5c5.3-6.8,11.3-13,17.5-19c4.4-4.3,9.1-8.3,14-12c8.9-6.6,18.1-12.8,27.6-18.5
		c6-3.6,12.4-6,19.2-7.4c3.2-0.7,6.3-0.8,9.6-0.8c8.1-0.1,16.3,0,24.4-0.2c5.4-0.1,10.8-0.6,16.2-1c2.7-0.2,5.4-0.3,8.1-0.4
		c6.6-0.4,13.3-0.8,19.9-1.1c5.2-0.2,10.3-0.4,15.5,0.7c2.2,0.4,4.2,1.3,6.1,2.6c2.7,1.8,4.9,4.1,6.7,6.8c5.3,7.9,7.3,16.6,6.1,26
		c-0.5,3.5-1.8,6.6-3.5,9.7c-1.3,2.4-3,4.5-4.4,6.9c-1.1,1.9-2.1,3.9-3,5.9c-2.2,4.8,0.3,10.4,4.3,12.9c2.5,1.6,5.2,2.8,8.1,3.6
		c3.6,1,7.1,2,10.7,3c5.5,1.5,10.9,3.1,16,5.7c2.8,1.5,5.7,3,8.4,4.7c7,4.5,12.3,10.5,16.1,17.9c2.6,5,4.7,10.3,6.5,15.7
		c1.9,5.8,3.8,11.7,5.4,17.6c3.9,14.5,7.8,29,11.5,43.5c2.9,11.5,5.2,23,6.8,34.8c2.4,16.9,6.3,33.4,12.8,49.2
		c3.5,8.7,7.7,17.1,12.6,25.1c4.9,8,9.9,15.9,14.7,23.9c11,18.2,19.9,37.4,27.8,57.1c8.3,20.8,15.1,42.2,19.9,64.1
		c2.3,10.3,4,20.8,5.6,31.3c2.4,16.9,3.1,33.8,2.4,50.9c-0.3,7.4-1.2,14.7-2.1,22.1c-2.2,18.4-6.9,36.3-11.8,54.1
		c-1.8,6.4-3.4,12.8-4.4,19.4c-0.4,2.5-0.2,4.9,0.7,7.3c1.2,3.2,4.5,5.1,7.7,4.1c2.3-0.8,4.5-1.9,6.8-2.9c2.9-1.3,5.7-2.9,8.7-4.1
		c8.8-3.7,17.7-3.7,26.6-0.3c7.5,2.8,13.9,7.4,19.7,12.8c4.5,4.2,8.5,9,12,14c12.6,17.7,20.8,37.3,25.3,58.6
		c2.6,12.4,3.4,24.9,2.5,37.5c-0.5,7.1-1.3,14.2-2.4,21.3c-1.2,7.5-2.5,15.1-4,22.5c-2.3,11.4-5.7,22.4-9,33.5
		c-1.5,5-2.8,10-4.2,14.9c-1,3.4-1.2,6.8-0.8,10.2c0.3,3.2,3.2,5.1,6.4,4.4c2.5-0.5,4.6-1.7,6.7-3c3.2-1.8,6.4-3.7,9.6-5.5
		c3.1-1.7,6.4-2.6,9.8-3.2c5.4-0.9,10.3,0.3,14.7,3.5c1.4,1,2.7,2.2,3.9,3.3c11.3,10.3,23,20.1,34.8,29.8
		c16.9,14,32.8,29.1,47.7,45.3c12.4,13.5,22.8,28.4,30.9,44.9c7.4,15.2,12.5,31,14.9,47.7c1.1,7.6,1.2,15.2,1.1,22.8
		c-0.1,4.9-1.2,9.8-2.2,14.6c-3.2,15-7.5,29.6-12.6,44c-2.6,7.4-6.1,14.5-9.7,21.5c-0.7,1.3-1.5,2.6-2.4,3.7
		c-14.3,18.5-31,34.4-51,46.6c-16.4,10-34,16.7-52.9,20.1C1283.1,1570.3,1276.6,1570.7,1265.6,1570.7z"/>
	<path class="st0" d="M840.7,1094.8c-23.6-0.6-45.2-6.8-65-18.8c-11.2-6.8-20.2-15.7-26.8-27c-3.3-5.7-6.4-11.6-9.5-17.5
		c-5.9-11.4-11.9-22.7-18.8-33.5c-9.7-15.2-20.5-29.5-32.3-43.2c-13.6-15.7-28.4-30.1-43.5-44.2c-7.9-7.4-15.9-14.7-23.8-22.1
		c-15.1-14.1-30.9-27.6-46.8-40.8c-3.4-2.8-6.8-5.7-10.1-8.6c-1.5-1.3-2.8-2.8-4.1-4.2c-0.6-0.7-0.8-2.3-0.3-2.7
		c0.5-0.4,1.2-0.9,1.9-0.9c3-0.3,5.9,0,8.8,0.6c8.5,1.7,16.7,4.2,24.8,7.2c32.3,12.2,61.7,29.4,88.2,51.6
		c22.7,19,41.6,41.2,56.6,66.7c5.6,9.6,11.3,19.1,17,28.5c13.8,22.8,31.6,42.1,52.5,58.5c10.1,7.9,20.6,15.2,31.4,22.1
		c5.2,3.3,10.4,6.6,15.5,10.1c2.6,1.8,5.2,3.8,7.5,6c3.2,3.2,3.4,6.3-1.3,8.8c-3.3,1.7-6.9,2.6-10.6,2.9
		C848.1,1094.6,844.1,1094.7,840.7,1094.8z M1013,1192.3c0.7,11.6,2.8,23,6.2,34.1c4.1,13.8,10.2,26.6,19.2,38
		c5.1,6.4,10.9,12.1,17.2,17.2c5.1,4.2,10.5,8.2,15.6,12.4c6.5,5.3,13.1,10.4,19.3,16c14,12.5,26,26.9,36.5,42.5
		c12.2,18,22.1,37.2,31,57c2.9,6.5,5.8,13.1,8.7,19.6c1.1,2.5,2.4,4.8,3.8,7.2c0.5,0.8,1.3,1.4,2,2.1c0.6,0.5,2.2,0.1,2.6-0.6
		c0.2-0.4,0.5-0.8,0.7-1.3c0.9-2.8,1.2-5.8,1.3-8.7c0.3-7.2-0.6-14.3-1.6-21.3c-1.9-13.9-5-27.6-9.4-40.9
		c-7.1-21.4-17.9-40.4-33.5-56.8c-6-6.3-12.4-12-18.5-18c-7.1-6.9-14.3-13.6-21.1-20.7c-17.1-17.9-29.6-38.6-38.6-61.6
		c-7.7-19.6-12.1-40-14.3-60.9c-1-10.3-1.9-20.6-1.8-31c0.1-4.7-0.1-9.4-0.2-14c0-2-0.1-4-0.4-5.9c-0.2-1.4-0.8-2.8-1.3-4.2
		c-0.2-0.7-2-1.2-2.6-0.6c-1.1,1-2.2,2-3,3.2c-3.2,4.7-5.4,10-7.3,15.3c-3.5,9.8-5.9,19.8-7.9,30c-2.3,12.4-3,24.9-3.7,38.1
		C1012.4,1182.4,1012.8,1187.4,1013,1192.3z M920.1,554.5c1.6,11.3,6.1,21.3,14,29.5c3.4,3.6,7.1,6.8,10.8,10
		c4.7,4,9.6,7.8,14.3,11.7c12.4,10.1,22.1,22.4,29.6,36.5c4.9,9.2,8.3,18.9,9.5,29.3c0.7,6.4,1.2,12.8,1.5,19.1
		c0.6,11.7,3.4,22.8,8.7,33.3c7.3,14.5,17.4,26.8,29.6,37.4c13,11.2,27.5,19.9,43.2,26.6c8.8,3.8,18,6.8,27.5,8.5
		c2.9,0.5,5.9,0.7,8.8,0.5c0.7-0.1,1.4-0.4,2.1-0.7c1.1-0.4,1.5-2.2,0.9-3.1c-1.6-2.3-3.7-3.9-5.9-5.5c-4.3-3.3-8.7-6.4-13-9.7
		c-15.6-11.8-29.7-25.1-41.5-40.7c-19.2-25.3-30.8-53.6-33.7-85.4c-0.5-5.9-1.5-11.7-2.7-17.5c-1.9-8.8-5.2-16.9-10.3-24.3
		c-5-7.4-10.9-13.9-17.8-19.6c-5.7-4.7-11.8-8.9-18-12.8c-4.8-3-9.5-6.2-14.1-9.4c-10.6-7.5-17.5-17.8-21.5-30.1
		c-2.4-7.5-3.8-15.3-4-23.2c-0.1-5.4-0.1-10.8,0.7-16.2c0.2-1.4,0.2-3,0-4.4c-0.1-0.6-0.6-1.4-1.1-1.8c-0.6-0.5-1.4-0.2-2,0.3
		c-0.6,0.5-1.2,0.9-1.6,1.5c-1.8,2.7-3.7,5.2-5.2,8.1c-6.5,12.7-9.5,26.3-9.9,40.5C918.6,546.7,919.5,550.6,920.1,554.5z M498,640.3
		c2.5-2.1,4.6-4.5,6.4-7.1c2.3-3.2,4.5-6.4,6.8-9.7c3.4-4.9,6.9-9.6,10.8-14c9.5-10.9,21-18.5,35-22.3c4.3-1.2,8.6-2,12.9-3
		c4.1-1,8.2-1.8,12.2-3.1c15.2-4.9,23.5-19.9,23-31.9c-0.2-3.9-0.1-7.9-0.9-11.8c-0.8-4.1-0.8-8.3-0.7-12.5c0-2.2,0.4-4.4,1-6.5
		c1.5-5.1,4.2-9.4,7.8-13.2c4.7-4.9,10.3-8.4,16.6-10.9c4.6-1.8,9.3-3.3,14-4.7c5.4-1.6,11-2.8,16.4-4.3c3.1-0.8,6.1-1.8,9.2-2.9
		c1.6-0.6,3.2-1.3,4.7-2.1c4.6-2.5,7.5-6.3,7.9-11.7c0.1-0.7-0.9-2.2-1.5-2.3c-0.7-0.1-1.5-0.2-2.2-0.2c-13.8-0.1-27.6-0.4-41.4,0.9
		c-8.4,0.8-16.6,1.8-24.9,3.5c-8,1.6-15.8,4-23.1,7.6c-5.3,2.7-10.2,6-14.2,10.5c-3.4,3.7-5.8,8-7.1,12.8c-1,3.6-1.8,7.2-1.8,10.9
		c0,3.2-0.2,6.4-0.2,9.6c0,5.2-0.8,10.3-1.4,15.4c-0.5,3.9-1.7,7.7-3.3,11.3c-4.7,10.5-12,18.6-22.4,23.6c-3.8,1.8-7.6,3.5-11.4,5.2
		c-10,4.5-19,10.5-26.5,18.5c-10.7,11.3-17.7,24.8-22.6,39.4c-0.5,1.5,0.3,3.5,1.7,4.6c3,2.3,6.5,3.5,10.9,3.6
		C492.7,643.7,495.5,642.4,498,640.3z M1339.9,1421.1c0-2-0.6-3.9-1.4-5.7c-0.7-1.5-2.7-1.9-3.6-0.7c-1.4,2-2.9,4-4.1,6.1
		c-2.4,4-4.6,8.1-7.1,12.1c-15,24.2-35,43.1-60.5,55.9c-5.5,2.8-11.2,5.2-16.7,7.8c-2.4,1.2-4.9,2.3-7.2,3.7
		c-4.8,2.9-4.8,6.6-0.1,9.7c1.2,0.8,2.5,1.5,3.9,2c2.3,0.9,4.6,1.6,7,2.2c9.5,2.2,19.1,1.8,28.5-0.4c16.7-3.9,30.2-12.8,40.7-26.3
		c5.9-7.6,10.4-16.1,13.8-25.1c4.1-11.2,6.7-22.6,6.8-34.5C1340,1425.5,1340,1423.3,1339.9,1421.1z"/>
	<path class="st2" d="M1267.4,717.1c-3.9,3.4-7.8,6.8-11.5,10.3c-9.9,9.2-19.8,18.5-29.7,27.8c-9.2,8.6-18.3,17.2-27.5,25.7
		c-1.1,1-2.4,0.7-2.9-0.6c-0.2-0.5-0.3-0.9-0.5-1.4c-0.3-0.9-0.6-1.9-0.9-2.8c-8.2-26.9-18.9-52.8-31.8-77.8
		c-3.4-6.6-7.1-13-10.7-19.4c-1.2-2-1-3.5,0.5-5.3c6.5-8.3,13-16.7,19.4-25.1c11-14.3,21.9-28.5,32.8-42.8
		c22.4-29.4,44.8-58.8,67-88.3c28.1-37.4,55.9-75.1,83.8-112.6c4.6-6.1,9-12.3,13.6-18.4c0.7-1,1.6-1.9,2.4-2.8
		c0.4-0.4,1.6-0.3,2,0.2c0.7,1,1.4,2,2,3.1c9,15.3,19.1,29.9,30.1,43.8c2.3,2.9,4.7,5.7,7,8.6c0.6,0.8,1.2,1.6,1.6,2.5
		c0.2,0.6,0.2,1.5-0.1,2.1c-0.4,0.9-1,1.7-1.6,2.5c-12.7,17.3-25.4,34.5-38.1,51.8c-6.4,8.7-12.8,17.5-19.2,26.2
		c-0.6,0.8-1,1.7-1.6,2.5c-2.6,1.6-3.7,4.4-5.2,6.8c0,0.1,0.4,0.5,0.4,0.5c2.4-1.6,4.7-3.3,6.4-5.8c6.6-5.6,13.2-11.1,19.8-16.7
		c13.6-11.7,27.2-23.5,40.9-35.2c5.2-4.5,10.4-9,15.7-13.5c0.8-0.7,1.8-0.7,2.6,0.1c1.1,1,2.2,2,3.2,3.1
		c20.6,20.7,43.5,38.6,68,54.3c1.9,1.2,3.7,2.4,5.6,3.6c0.5,0.3,0.8,1.5,0.5,2c-0.9,1.4-1.8,2.9-2.9,4.3
		c-10.1,13.7-20.1,27.4-30.2,41.1c-7.3,9.9-14.6,19.9-21.9,29.8c-0.3,0.4-0.2,0.9-0.4,1.3c-0.2,0.7,0.9,0.7,1.8,0
		c1-0.8,2-1.5,2.9-2.3c3.4-2.9,6.7-5.8,10.1-8.7c12.5-10.8,25-21.6,37.4-32.4c8-6.9,16-13.8,24.1-20.8c1-0.9,2.1-1.1,3.4-0.5
		c6.2,3,12.4,6,18.7,8.9c10.5,4.8,21.3,9,32.3,12.7c1.2,0.4,2.3,0.9,3.4,1.3c0.7,0.3,1,1.3,0.6,1.7c-1.3,1.5-2.6,2.9-4,4.3
		c-26.6,27.1-53.2,54.2-79.7,81.3c-21.4,21.8-42.7,43.7-64,65.6c-15.5,15.9-30.9,31.8-46.4,47.7c-14.6,15-29.1,30.1-43.7,45.2
		c-12.1,12.6-24.3,25.2-36.4,37.8c-20.4,21.4-40.9,42.7-61.2,64.2c-14.1,14.8-28.1,29.8-42.1,44.6c-1.2,1.2-2.1,2.8-3.9,3.3
		c-0.4,0.1-1.1-0.1-1.3-0.4c-0.4-0.6-0.6-1.3-0.8-2c-0.6-3.4-0.3-6.9,0.3-10.3c1-5.8,2.1-11.6,3.1-17.5c1.2-7.5,2.3-15.1,2.4-22.8
		c0.1-10.1,0.2-20.2-0.2-30.3c-0.3-7.9-1.2-15.7-2.2-23.5c-0.9-7.3-2-14.6-3.4-21.9c-0.8-4.4-1.7-8.7-2.5-13c-0.2-1.1,0-1.9,1.2-2.2
		c1.4-0.3,1.9-1.6,2.5-2.5c3.8-5.5,7.5-11,11.2-16.5c15.7-23.3,31.4-46.6,47.1-69.9c0.8-1.2,1.6-2.5,2.3-3.8
		c2.5-2.3,4.3-5.1,5.7-8.2c0.1-0.2,0-0.4-0.1-0.6c-0.2-0.5-0.6-0.6-1.1-0.1C1271.2,712.8,1268.9,714.5,1267.4,717.1z M624.9,1459.1
		c0.5-0.3,0.6-0.1,0.5,0.5c-0.5,2.4-1.5,4.4-3.7,5.8c-1.2,1.9-2.4,3.7-3.7,5.6c-17.2,25.5-34.4,51.1-51.7,76.6
		c-1.1,1.6-2.2,3.3-3.3,4.9c-1.3,2-1,2.8,1.4,3.9c1.3,0.6,2.7,1.3,4.1,1.8c7.8,3,15.8,5.4,24.1,6.8c15.5,2.7,30.4,1,44.9-4.7
		c7.6-3,14.6-7.1,21.3-11.7c11.2-7.8,21.2-16.9,30.6-26.7c12.5-13,24.2-26.6,35.9-40.3c9.7-11.5,19.7-22.7,30.1-33.6
		c11.5-12.2,23.2-24.2,34.9-36.2c13.6-14,27.3-27.7,40.3-42.2c5.9-6.6,11.8-13.3,17.6-20c8.7-10.1,16.8-20.6,24.9-31.2
		c5.7-7.5,5.5-6.3-2.4-10.7c-0.9-0.5-1.7-1-2.7-1.3c-0.6-0.2-1.4-0.1-2.1,0.2c-0.7,0.3-1.2,0.8-1.8,1.3
		c-15.7,13.5-31.3,27.1-47,40.6c-5.8,5-11.6,9.9-17.5,14.8c-2.1,2.7-4.8,4.7-7.5,6.7c-0.1,0.1-0.5,0-0.6-0.1
		c-0.1-0.1-0.2-0.5-0.1-0.6c1.8-2.5,3.1-5.4,5.8-7.3c1.1-1.6,2.1-3.3,3.3-4.9c13-17.7,26-35.3,39-53c1.9-2.6,3.7-5.2,5.5-7.8
		c0.7-1,0.5-1.9-0.5-2.4c-5.4-2.9-10.8-5.9-16.3-8.7c-18.6-9.6-36.6-20.3-54-31.9c-6.2-4.1-12.2-8.4-18.2-12.6
		c-1.7-1.2-2.5-1.2-3.9,0.1c-3.9,3.4-7.8,6.8-11.8,10.1c-1.7,1.4-3.5,2.7-5.2,4c-0.1,0.1-0.5,0.1-0.6,0c-0.5-0.3-0.6-0.8-0.3-1.3
		c1.7-2.4,3.4-4.8,5.1-7.2c2.4-3.4,4.9-6.8,7.3-10.2c0.5-0.8,0.3-2.1-0.4-2.7c-2.1-1.7-4.3-3.3-6.4-5c-6.6-5.1-13.2-10.3-19.8-15.4
		c-1-0.8-2-1.5-3-2.2c-1.3-0.9-2.2-0.9-3.2,0.2c-4.4,5-8.7,10-13.1,15.1c-11.4,13.2-22.8,26.5-34.3,39.7
		c-7.7,8.9-15.5,17.8-23.3,26.7c-12.6,14.5-25.3,28.9-37.9,43.4c-8.4,9.6-17,19.2-25.4,28.8c-13.6,15.3-27.1,30.6-40.7,45.9
		c-10.8,12.1-21.7,24.2-32.6,36.3c-3.5,3.8-6.9,7.7-10.4,11.6c-1.3,1.4-1.4,2.9-0.9,4.7c8.2,27.1,21,52,38,74.6
		c0.7,1,1.6,1.8,2.5,2.7c0.4,0.4,1.6,0.4,2.1,0.1c0.8-0.6,1.5-1.2,2.3-1.9c12.8-11.9,25.6-23.8,38.4-35.8
		c12.8-12,25.5-23.9,38.2-35.9c1.1-1,2.2-2,3.3-3C621,1461.8,622.8,1460.2,624.9,1459.1z"/>
</g>
</svg>
